<svg width="75" height="75" viewBox="0 0 75 75" fill="none" xmlns="http://www.w3.org/2000/svg">
<rect width="75" height="75" rx="10" fill="#FBE6DA"/>
<path d="M60.8252 61.9424C60.286 61.7582 59.4043 61.8694 58.9187 61.9718C58.8468 61.987 58.7718 61.976 58.7084 61.9387L57.6954 61.3428C57.6517 61.3171 57.6019 61.3035 57.5511 61.3035H55.2094C55.0522 61.3035 54.9248 61.1761 54.9248 61.0189V60.5994C54.9248 60.5181 54.9596 60.4407 55.0203 60.3866L56.0918 59.4342C56.1439 59.3879 56.2106 59.3623 56.2804 59.3624C57.6779 59.366 60.3395 59.4387 60.6097 59.7089C60.8595 59.9587 63.0773 60.7145 64.4779 61.1662C64.6639 61.2261 64.7109 61.4678 64.5609 61.5929C64.5164 61.6299 64.4605 61.6501 64.4027 61.6501H63.2904C63.2598 61.6501 63.2294 61.6452 63.2004 61.6355L61.6833 61.1299C61.4877 61.0646 61.3331 61.302 61.4718 61.4545C61.5611 61.5527 61.5319 61.709 61.4132 61.7684L61.0837 61.9331C61.0035 61.9732 60.9099 61.9714 60.8252 61.9424Z" fill="#A67756"/>
<path d="M56.9353 59.3622C56.1588 59.4731 55.6874 60.2865 55.5487 60.6794L52.2903 51.3201L53.1916 49.1016C54.0928 55.3411 56.9353 59.0155 56.9353 59.3622Z" fill="#C79D4D"/>
<path d="M52.7573 50.9038L54.093 46.6055H51.7358L52.7573 50.9038Z" fill="#C08A64"/>
<path d="M20.8846 37.7774V38.6214C20.8846 38.8572 20.6934 39.0484 20.4576 39.0484H19.4886C19.2346 39.0484 19.0367 38.8278 19.0642 38.5752L20.4035 26.2658C20.4353 25.9736 20.7475 25.8031 20.9775 25.9861C22.0334 26.8266 22.3568 28.3831 21.9938 29.4117C21.6651 30.3432 21.8505 32.2084 21.9888 33.0555C21.9922 33.0763 21.9969 33.0956 22.0034 33.1157C22.2831 33.9822 22.7968 35.7527 22.6871 36.1366C22.5895 36.4783 21.6971 37.0598 21.1064 37.3992C20.9705 37.4772 20.8846 37.6207 20.8846 37.7774Z" fill="#A67756"/>
<path d="M50.1411 15.7201V15.4147C50.1411 15.3221 50.0541 15.2542 49.9643 15.2766L49.0318 15.5097C48.4772 15.7316 47.9688 16.4803 47.7839 16.827C48.3467 16.1619 49.4246 15.9176 50.0056 15.8656C50.0815 15.8588 50.1411 15.7963 50.1411 15.7201Z" fill="#020202"/>
<path d="M19.5141 38.3861L16.0617 38.0573C15.7695 38.0295 15.5464 37.7841 15.5464 37.4906V35.1846C15.5464 34.8035 15.5901 34.4237 15.6767 34.0527L15.8381 33.361C15.9661 32.8123 15.9788 32.2417 16.04 31.6816C16.1431 30.7368 16.4964 29.569 16.7642 28.5514C16.9399 27.8836 16.9473 27.1448 17.3365 26.5744C17.5881 26.2058 17.943 25.8623 18.2664 25.598C18.5578 25.3599 18.7908 25.052 18.9012 24.6922C19.0162 24.3173 19.1139 24.0263 19.1759 23.8505C19.2007 23.7803 19.2769 23.7425 19.3473 23.7666C20.8597 24.2839 20.4048 25.6075 20.6074 25.9451C20.8153 26.2917 21.0233 26.4997 20.6074 28.0943C20.2901 29.3104 20.7038 31.0434 20.9834 31.8631C21.0092 31.9387 21.0518 32.0057 21.1063 32.064C21.7723 32.7767 22.9322 34.2779 22.8259 35.2351C22.7243 36.1491 21.4141 36.9391 20.6083 37.2966C20.475 37.3557 20.365 37.4579 20.3034 37.59L20.084 38.0601C19.9821 38.2784 19.7539 38.4089 19.5141 38.3861Z" fill="#C08A64"/>
<path d="M57.5851 62.8617C54.8964 63.4702 54.0154 62.9077 53.8708 62.4596C53.8468 62.3851 53.8165 62.3079 53.8155 62.2296C53.8102 61.8287 54.719 61.0352 55.3826 60.5306C55.539 60.4117 55.7564 60.4219 55.9056 60.5498L55.9966 60.6278C56.0861 60.7045 56.2029 60.7405 56.3202 60.7297C57.2252 60.6459 58.8074 60.5937 59.1179 60.956C59.4278 61.3175 61.5656 61.7873 62.8099 62.0182C62.9603 62.0461 63.0696 62.1768 63.0696 62.3297C63.0696 62.4623 63.1526 62.5807 63.2771 62.626L63.4795 62.6996C63.6638 62.7666 63.7433 62.9835 63.646 63.1538C63.5897 63.2523 63.4849 63.3132 63.3714 63.3132H60.5816C60.4868 63.3132 60.3964 63.3493 60.3083 63.3845L60.3081 63.3845C59.7551 63.6055 58.5462 63.189 57.8663 62.8891C57.7784 62.8503 57.6788 62.8405 57.5851 62.8617Z" fill="#C08A64"/>
<path d="M50.1486 51.8075L45.9196 48.965L45.1943 48.5118C44.9696 48.3713 44.6775 48.4045 44.4901 48.592L44.2557 48.8264C41.538 48.7154 40.1191 48.9188 39.7493 49.0344C37.2461 49.8166 35.5332 50.9038 34.7577 52.7781C34.1659 54.2082 31.2284 54.6115 29.366 54.6509C28.9395 54.6599 28.5138 54.6759 28.0917 54.738C26.5066 54.9713 23.9651 55.4359 22.9025 55.9672C21.6824 56.5773 19.5748 56.8223 18.6735 56.8685C19.6164 55.5928 20.2681 53.1941 20.476 52.1541C21.0213 51.4998 20.8295 44.4264 20.8229 40.6963C20.8226 40.5696 20.8469 40.4465 20.8939 40.3288L21.053 39.9312C21.0815 39.8599 21.0648 39.7785 21.0105 39.7242L20.9854 39.6991C20.8995 39.6132 20.9096 39.4712 21.0068 39.3983C21.0655 39.3543 21.1 39.2852 21.1 39.2119V39.0103C21.1 38.8909 20.9868 38.8039 20.8714 38.8347L20.0601 39.0511V38.4271C19.6164 37.7061 16.871 37.5721 15.5537 37.5952L15.2806 38.0048C15.109 38.2622 15.103 38.5959 15.2651 38.8593C15.4452 39.152 15.4655 39.5158 15.3192 39.8267L14.9991 40.507L14.3058 44.1814C13.1503 48.1562 10.6869 56.8407 10.0768 59.7803C9.46669 62.7198 12.6419 63.9169 14.3058 64.148H25.6757C26.2072 64.0093 28.5736 63.7043 33.7871 63.5933C39.0006 63.4824 41.7368 62.9463 42.4532 62.6921C46.4465 61.0282 50.1255 57.608 51.4658 56.1059L50.1486 51.8075Z" fill="#2B2B2B"/>
<path d="M48.4282 48.1366C46.9522 49.0288 44.2872 47.7649 43.1392 47.0215L50.7653 52.8451L48.4282 48.1366Z" fill="#C08A64"/>
<path d="M41.5613 10.1154C46.8857 9.44984 49.095 11.8255 49.534 13.0965L46.2062 19.8907V29.5967L45.5823 48.1767C44.1264 48.2229 40.9095 48.2876 39.6894 48.1767C38.4692 48.0658 37.4708 46.6515 37.1242 45.9582C36.5696 46.6792 37.3553 48.0611 37.8175 48.662C36.4309 48.3292 35.7608 46.7208 35.599 45.9582C34.6007 47.1229 35.7377 48.5233 36.4309 49.078C33.6578 48.4124 34.1662 46.1199 34.767 45.0569C36.1536 43.4485 28.5968 42.4224 26.1703 40.2039C24.5295 38.4476 22.7177 34.1169 28.5968 30.8446C34.4758 27.5723 35.7146 23.5651 35.599 21.9705C35.3679 18.2961 36.2369 10.7809 41.5613 10.1154Z" fill="#020202"/>
<path d="M50.349 16.1337C50.349 14.8026 49.7944 13.5455 49.5171 13.0833C47.6313 12.6951 46.328 15.8795 45.912 17.5203C45.3574 18.796 44.433 18.8838 44.0402 18.7682C43.0418 17.6035 42.2839 17.9132 42.0296 18.2136C41.6137 19.5308 43.4162 21.3334 44.3175 20.9174V23.2052C43.3469 26.2557 42.1683 26.4637 40.7817 27.9889C42.0574 27.878 44.0171 28.8114 44.7335 28.9963C45.7872 29.9392 48.2692 30.4291 49.1705 30.5909C47.8394 29.5925 47.1599 26.0939 47.2986 24.7305C48.1998 23.4132 49.1704 23.2746 50.0024 23.2052C50.8343 23.1359 50.8343 22.5813 50.9036 22.2346C50.9591 21.9573 51.0654 21.7031 51.1116 21.6107C51.3889 21.3888 51.2272 21.0561 51.1116 20.9174C51.3889 20.8065 51.3658 20.409 51.3196 20.2241C51.0423 20.0577 51.0654 19.6926 51.1116 19.5308C51.8881 18.9762 51.8049 18.5602 51.6663 18.4216C51.2272 18.2136 50.349 17.4649 50.349 16.1337Z" fill="#C08A64"/>
<path d="M44.932 28.6166C44.0791 27.5505 42.005 27.6798 40.9628 27.8967C40.885 27.9129 40.8186 27.9632 40.7806 28.033C37.7444 33.5984 42.7065 41.6138 43.8638 45.9786C43.8827 46.0499 43.8716 46.1232 43.835 46.1872L43.4793 46.8097C43.401 46.9466 43.449 47.1211 43.585 47.2011C44.752 47.8871 46.1112 48.8075 47.8708 48.4362C48.0137 48.406 48.1613 48.4787 48.2142 48.6148L49.5624 52.0816C49.5721 52.1064 49.5778 52.1302 49.5809 52.1567C49.7647 53.7301 52.7683 58.992 53.0434 60.1611C53.1823 60.7515 53.3466 61.409 53.4784 61.9258C53.5433 62.1802 53.9116 62.2276 54.0807 62.0268C54.8788 61.0787 55.9662 60.9157 56.0245 60.5077C56.0791 60.1256 53.4518 51.8768 52.0689 47.6067C52.0297 47.4854 52.0763 47.3553 52.1898 47.2974C52.6705 47.0521 53.504 46.8062 54.0853 46.657C54.2618 46.6117 54.3557 46.4166 54.2942 46.2451C53.8409 44.9816 53.9054 43.1661 54.0085 42.3181C54.0121 42.2885 54.021 42.2595 54.0336 42.2326C55.7388 38.5947 54.6372 37.9032 54.43 37.0054C54.2662 36.2957 50.5963 32.0798 48.696 29.9642C48.6385 29.9002 48.5571 29.8677 48.4711 29.8696C47.5617 29.8901 45.7752 29.6707 44.932 28.6166Z" fill="#FFC960"/>
</svg>
