<svg width="11" height="10" viewBox="0 0 11 10" fill="none" xmlns="http://www.w3.org/2000/svg">
<path d="M5.05181 0.366323C5.23523 -0.00526094 5.7651 -0.00526118 5.94852 0.366323L7.05769 2.61339C7.13046 2.76081 7.27105 2.86304 7.43373 2.88682L9.91494 3.24948C10.3249 3.3094 10.4883 3.81332 10.1915 4.10241L8.39689 5.85034C8.27895 5.96522 8.22512 6.13078 8.25295 6.29305L8.67638 8.76182C8.74644 9.1703 8.31766 9.48178 7.95085 9.28888L5.73289 8.12248C5.5872 8.04586 5.41313 8.04586 5.26744 8.12248L3.04948 9.28888C2.68266 9.48178 2.25389 9.1703 2.32395 8.76182L2.74737 6.29305C2.7752 6.13078 2.72137 5.96522 2.60344 5.85034L0.808835 4.1024C0.512038 3.81332 0.67543 3.3094 1.08539 3.24948L3.5666 2.88682C3.72927 2.86304 3.86987 2.76081 3.94264 2.61339L5.05181 0.366323Z" fill="#FFC960"/>
</svg>
