<svg width="15" height="13" viewBox="0 0 15 13" fill="none" xmlns="http://www.w3.org/2000/svg">
<path d="M7.5 0.140625C6.01664 0.140625 4.56659 0.492519 3.33323 1.15181C2.09986 1.8111 1.13856 2.74817 0.570907 3.84452C0.00324965 4.94088 -0.145275 6.14728 0.144114 7.31116C0.433503 8.47505 1.14781 9.54415 2.1967 10.3833C3.2456 11.2224 4.58197 11.7938 6.03683 12.0253C7.49168 12.2568 8.99968 12.138 10.3701 11.6839C11.7406 11.2298 12.9119 10.4607 13.736 9.47404C14.5601 8.48735 15 7.32731 15 6.14062C15 5.35269 14.806 4.57248 14.4291 3.84452C14.0522 3.11657 13.4997 2.45514 12.8033 1.89798C12.1069 1.34083 11.2801 0.898876 10.3701 0.597348C9.46019 0.29582 8.48492 0.140625 7.5 0.140625ZM7.5 10.9406C6.31331 10.9406 5.15328 10.6591 4.16658 10.1317C3.17989 9.60425 2.41085 8.85459 1.95673 7.9775C1.5026 7.10042 1.38378 6.1353 1.61529 5.20419C1.8468 4.27308 2.41825 3.4178 3.25736 2.74651C4.09648 2.07522 5.16558 1.61806 6.32946 1.43286C7.49335 1.24765 8.69975 1.3427 9.7961 1.706C10.8925 2.0693 11.8295 2.68453 12.4888 3.47389C13.1481 4.26324 13.5 5.19127 13.5 6.14062C13.5 7.41366 12.8679 8.63456 11.7426 9.53474C10.6174 10.4349 9.0913 10.9406 7.5 10.9406ZM9.825 6.51862L8.25 5.79262V3.14062C8.25 2.98149 8.17099 2.82888 8.03033 2.71636C7.88968 2.60384 7.69891 2.54062 7.5 2.54062C7.30109 2.54062 7.11032 2.60384 6.96967 2.71636C6.82902 2.82888 6.75 2.98149 6.75 3.14062V6.14062C6.75 6.14062 6.75 6.18862 6.75 6.21262C6.75444 6.25396 6.7671 6.29447 6.7875 6.33262C6.80295 6.36822 6.82306 6.40241 6.8475 6.43462C6.86803 6.46873 6.89318 6.50092 6.9225 6.53062L7.0425 6.60862L7.11 6.66262L9.06 7.56262C9.1743 7.61445 9.30362 7.64135 9.435 7.64062C9.60106 7.64155 9.76282 7.59836 9.89489 7.51783C10.027 7.43729 10.1219 7.32397 10.1648 7.19562C10.2077 7.06728 10.1961 6.93117 10.1319 6.80865C10.0677 6.68613 9.95448 6.58412 9.81 6.51862H9.825Z" fill="#AAAAAA"/>
</svg>
