<svg width="75" height="76" viewBox="0 0 75 76" fill="none" xmlns="http://www.w3.org/2000/svg">
<rect y="0.875" width="75" height="75" rx="10" fill="#FBE6DA"/>
<g clip-path="url(#clip0_114_828)">
<path d="M17.3219 59.3949C18.2633 59.3293 19.2671 59.1839 19.5523 59.0717C20.3565 58.7555 20.6134 58.8006 21.7913 59.4644C23.7204 60.5513 23.7256 61.2009 21.8259 63.7132C20.4883 65.4821 19.9752 66.7257 19.9665 68.2195C19.9557 70.0728 18.9202 70.8943 16.5769 70.9074C14.1071 70.9216 13.4419 69.7217 15.5065 68.9767C17.1089 68.3984 17.1777 68.274 16.6763 66.8674C16.3476 65.946 15.6102 61.0008 15.6102 59.7191C15.6102 59.6063 16.3806 59.4604 17.3219 59.3949Z" fill="#C08A64"/>
<path d="M22.9769 27.3826C19.6912 28.7927 20.6822 26.7523 25.5126 22.1617C27.923 19.871 27.6304 19.902 29.4564 21.7422C31.6649 23.9678 31.5869 24.174 28.0664 25.4109C26.5632 25.9391 24.2728 26.8264 22.9769 27.3826Z" fill="#C08A64"/>
<path fill-rule="evenodd" clip-rule="evenodd" d="M49.555 27.2209C48.1255 29.9652 47.4407 35.1457 48.3905 36.0286C49.036 36.6288 48.7307 36.7792 54.0345 33.2493C55.6525 32.1722 56.6168 31.7562 57.506 31.7511C60.0817 31.736 56.9349 28.943 53.2946 28.0129C52.6052 27.8366 51.7271 27.5653 51.3431 27.4096C49.9814 26.8582 49.7562 26.8344 49.555 27.2209Z" fill="#C08A64"/>
<path d="M64.425 42.2812C64.9157 39.003 64.2695 37.5223 60.6671 33.6697C57.9897 30.8067 57.2719 30.8235 53.0049 33.8511C52.084 34.5047 50.8746 35.3014 50.3175 35.6215C48.9719 36.3956 48.9612 36.487 50.0217 38.1458C51.0526 39.7584 51.955 42.4836 52.4235 45.4006C52.5891 46.4303 52.7738 47.5738 52.8344 47.9418C53.1691 49.9781 53.5282 49.0722 53.5282 46.1904C53.5282 42.4108 54.2473 41.7599 58.4218 41.7599C61.9903 41.7599 63.5694 42.4412 63.5825 43.9871C63.5939 45.3482 64.1276 44.2678 64.425 42.2812Z" fill="#FFC960"/>
<path d="M45.4762 19.3263C46.2354 10.905 45.7244 6.55561 43.8296 5.31412C41.9507 4.08312 38.821 5.55069 37.3783 8.33957C37.1483 8.7843 36.7372 9.37465 36.465 9.65146C35.4109 10.7231 33.4059 13.2085 31.9541 15.2432C31.1195 16.413 29.7884 18.0067 28.996 18.7849C27.2824 20.4681 27.2958 20.36 28.6238 21.7732C30.4856 23.7546 30.3665 23.7773 33.459 20.8538C34.7307 19.6516 36.8026 18.1353 37.1739 18.1353C37.5043 18.1353 37.4402 18.4812 37.0497 18.8054C36.5774 19.1975 35.7072 20.9596 35.009 22.9379L34.4279 24.5854L32.6861 24.7739C30.6146 24.9978 27.6532 25.8847 23.6198 27.4886C22.9997 27.735 19.42 29.395 18.5909 29.8205C10.6165 33.9123 10.1057 34.6702 11.7714 39.94C12.16 41.1697 12.5715 42.8916 12.6858 43.7664C12.916 45.5303 13.1017 46.4182 14.4352 52.1352C14.9401 54.2999 15.4176 56.8581 15.4961 57.8201L15.6391 59.5693L17.4976 59.549C18.5198 59.5378 19.6063 59.4252 19.912 59.2984L20.4678 59.0682L20.4288 54.0711C20.3694 46.4525 19.7775 41.8959 18.5955 39.9571C17.6166 38.3513 19.6605 37.3906 24.8224 37.0305C26.025 36.9465 27.8944 36.6411 28.9767 36.3513C33.2496 35.208 32.5565 35.2072 34.8273 36.3592C38.1735 38.0568 40.9368 38.2313 42.5795 36.849C43.6208 35.9729 44.7512 35.6272 46.5745 35.6272H48.2668L48.4081 34.2606C48.5937 32.4664 49.3148 29.4429 49.8702 28.1319C50.4627 26.733 50.1276 26.4409 46.2975 25.0184C44.9114 24.5035 44.9718 24.9219 45.4762 19.3263Z" fill="#2B2B2B"/>
<path fill-rule="evenodd" clip-rule="evenodd" d="M56.3245 41.6606C53.3091 42.218 53.1073 42.5383 53.3043 46.4571C53.4411 49.1795 53.3618 49.4159 52.5753 48.6296C51.3434 47.398 49.4493 48.3412 49.2717 50.2745L49.1569 51.5248L47.5031 52.1833C45.0443 53.1622 44.4944 53.8118 43.969 56.3587C43.0535 60.7951 43.6815 62.6542 46.6077 64.1669C47.2055 64.476 47.5549 65.1626 47.1171 65.1678C47.026 65.1689 45.8498 65.3069 44.503 65.4744C41.364 65.8645 41.0693 65.7978 39.9378 64.4424C38.6287 62.874 38.0425 62.3328 36.9698 61.7036C35.2897 60.7179 34.8216 61.5254 36.1934 63.043C37.3781 64.354 36.6963 64.3663 34.1842 63.0786C31.1023 61.4989 30.1698 62.4516 33.0836 64.2032C33.7413 64.5983 33.3155 64.7609 32.2601 64.5176C30.7565 64.1708 30.0807 64.2191 30.0807 64.6728C30.0807 65.0441 31.4701 65.8273 32.1282 65.8273C32.4927 65.8273 33.3888 66.4561 33.3888 66.7122C33.3888 66.8213 32.6694 66.9398 31.7899 66.9752C29.6794 67.0607 29.3695 67.8216 31.3468 68.0632C33.1273 68.2803 33.9192 68.9142 32.4102 68.9142C32.1291 68.9142 31.7813 69.0561 31.6373 69.2295C31.1631 69.8008 32.0761 69.9904 35.9457 70.1246C41.0665 70.3022 46.1065 71.0145 51.4726 72.3194C55.0399 73.1868 58.0888 73.0191 58.0888 71.9556C58.0888 71.8231 58.5757 70.6538 59.1709 69.3572C61.1017 65.1514 62.1298 59.4228 62.0126 53.5234C61.9497 50.3504 62.1574 48.3749 62.6319 47.6374C62.788 47.3949 63.0145 46.7995 63.1354 46.3143C63.2561 45.8294 63.4664 45.0337 63.6027 44.5464C64.2912 42.0837 61.0311 40.791 56.3245 41.6606ZM54.3396 66.0317C54.3396 66.825 52.6245 67.765 52.2582 67.1726C52.1039 66.9227 53.5815 65.6069 54.0164 65.6069C54.1942 65.6069 54.3396 65.798 54.3396 66.0317Z" fill="#C08A64"/>
<path d="M52.0027 64.5228C52.1776 65.5723 51.5654 66.272 51.2374 66.4907C50.3633 66.4907 48.0674 66.2322 47.7395 65.7254C46.7774 64.2386 45.6621 63.5024 45.2246 63.3202C41.2889 61.4836 43.0228 58.2913 43.4754 55.1209C43.8252 52.672 46.7555 52.4971 48.6991 51.7318C46.622 48.1241 52.1063 46.7464 52.8716 48.7142C53.4838 50.2885 53.9342 51.0028 54.5172 51.2943C53.9049 52.2564 54.2622 54.6834 54.5172 55.7766C51.631 56.6512 52.8773 58.2548 53.8612 58.947C53.8977 59.4574 53.8394 60.4994 53.3146 60.5869C52.6586 60.6962 51.784 63.2109 52.0027 64.5228Z" fill="#020202"/>
</g>
<defs>
<clipPath id="clip0_114_828">
<rect width="53.5691" height="68" fill="white" transform="translate(11 4.875)"/>
</clipPath>
</defs>
</svg>
