<svg width="25" height="24" viewBox="0 0 25 24" fill="none" xmlns="http://www.w3.org/2000/svg">
<rect width="25" height="24" fill="#F5F5F5"/>
<g id="Home">
<g clip-path="url(#clip0_0_1)">
<rect x="-110" y="-774" width="390" height="844" rx="33" fill="#EAF2F2"/>
<g id="Group 1171274909">
<g id="Rectangle 41935" filter="url(#filter0_d_0_1)">
<rect x="-95.3201" y="-20" width="343" height="63" rx="31.5" fill="white"/>
</g>
<g id="Group 1171274908">
<g id="Tab Two">
<g id="icon / tab bar / sample">
<g id="Iconly/Bold/Chart">
<path id="Vector" d="M21.9831 2.38214C21.2663 2.25868 20.5404 2.19512 19.8131 2.19214C17.3314 2.19011 14.9016 2.90172 12.8131 4.24214C10.7192 2.91932 8.28972 2.22517 5.81307 2.24214C5.08572 2.24512 4.35988 2.30868 3.64307 2.43214C3.40828 2.47262 3.19565 2.5956 3.04349 2.77894C2.89132 2.96227 2.80961 3.19391 2.81307 3.43214V15.4321C2.81093 15.5791 2.8412 15.7247 2.90172 15.8586C2.96225 15.9925 3.05154 16.1114 3.16325 16.2069C3.27495 16.3024 3.40633 16.3721 3.54803 16.411C3.68973 16.4499 3.83826 16.4571 3.98307 16.4321C5.41609 16.184 6.88427 16.2252 8.30114 16.5532C9.718 16.8812 11.0549 17.4895 12.2331 18.3421L12.3531 18.4121H12.4631C12.574 18.4584 12.6929 18.4821 12.8131 18.4821C12.9332 18.4821 13.0522 18.4584 13.1631 18.4121H13.2731L13.3931 18.3421C14.563 17.4704 15.8961 16.8425 17.3132 16.4955C18.7304 16.1485 20.2027 16.0896 21.6431 16.3221C21.7879 16.3471 21.9364 16.3399 22.0781 16.301C22.2198 16.262 22.3512 16.1924 22.4629 16.0969C22.5746 16.0014 22.6639 15.8825 22.7244 15.7486C22.7849 15.6147 22.8152 15.4691 22.8131 15.3221V3.32214C22.8027 3.0943 22.7147 2.87685 22.5637 2.70588C22.4128 2.53491 22.2079 2.42068 21.9831 2.38214ZM11.8131 15.6721C9.96296 14.6988 7.90359 14.1909 5.81307 14.1921C5.48307 14.1921 5.15307 14.1921 4.81307 14.1921V4.19214C5.14613 4.17295 5.48002 4.17295 5.81307 4.19214C7.94646 4.18979 10.0333 4.81583 11.8131 5.99214V15.6721ZM20.8131 14.2321C20.4731 14.2321 20.1431 14.2321 19.8131 14.2321C17.7226 14.2309 15.6632 14.7388 13.8131 15.7121V5.99214C15.5929 4.81583 17.6797 4.18979 19.8131 4.19214C20.1461 4.17295 20.48 4.17295 20.8131 4.19214V14.2321ZM21.9831 18.3821C21.2663 18.2587 20.5404 18.1951 19.8131 18.1921C17.3314 18.1901 14.9016 18.9017 12.8131 20.2421C10.7246 18.9017 8.29471 18.1901 5.81307 18.1921C5.08572 18.1951 4.35988 18.2587 3.64307 18.3821C3.5129 18.4028 3.3881 18.449 3.27584 18.518C3.16358 18.5871 3.06607 18.6777 2.98894 18.7846C2.9118 18.8914 2.85656 19.0125 2.82638 19.1408C2.7962 19.2691 2.79167 19.4021 2.81307 19.5321C2.86389 19.7918 3.01556 20.0208 3.23486 20.1689C3.45416 20.3169 3.72321 20.3721 3.98307 20.3221C5.41609 20.074 6.88427 20.1152 8.30114 20.4432C9.718 20.7712 11.0549 21.3795 12.2331 22.2321C12.4024 22.3527 12.6052 22.4175 12.8131 22.4175C13.021 22.4175 13.2237 22.3527 13.3931 22.2321C14.5712 21.3795 15.9081 20.7712 17.325 20.4432C18.7419 20.1152 20.2101 20.074 21.6431 20.3221C21.9029 20.3721 22.172 20.3169 22.3913 20.1689C22.6106 20.0208 22.7623 19.7918 22.8131 19.5321C22.8345 19.4021 22.83 19.2691 22.7998 19.1408C22.7696 19.0125 22.7143 18.8914 22.6372 18.7846C22.5601 18.6777 22.4626 18.5871 22.3503 18.518C22.238 18.449 22.1132 18.4028 21.9831 18.3821Z" fill="#AAAAAA"/>
</g>
</g>
</g>
</g>
</g>
</g>
</g>
<defs>
<filter id="filter0_d_0_1" x="-137.32" y="-61" width="427" height="147" filterUnits="userSpaceOnUse" color-interpolation-filters="sRGB">
<feFlood flood-opacity="0" result="BackgroundImageFix"/>
<feColorMatrix in="SourceAlpha" type="matrix" values="0 0 0 0 0 0 0 0 0 0 0 0 0 0 0 0 0 0 127 0" result="hardAlpha"/>
<feOffset dy="1"/>
<feGaussianBlur stdDeviation="21"/>
<feComposite in2="hardAlpha" operator="out"/>
<feColorMatrix type="matrix" values="0 0 0 0 0.168627 0 0 0 0 0.168627 0 0 0 0 0.168627 0 0 0 0.1 0"/>
<feBlend mode="normal" in2="BackgroundImageFix" result="effect1_dropShadow_0_1"/>
<feBlend mode="normal" in="SourceGraphic" in2="effect1_dropShadow_0_1" result="shape"/>
</filter>
<clipPath id="clip0_0_1">
<rect x="-110" y="-774" width="390" height="844" rx="33" fill="white"/>
</clipPath>
</defs>
</svg>
