<svg width="25" height="24" viewBox="0 0 25 24" fill="none" xmlns="http://www.w3.org/2000/svg">
<g id="Iconly/Bold/Chart">
<path id="Vector" d="M21.9831 2.38239C21.2663 2.25892 20.5404 2.19537 19.8131 2.19239C17.3314 2.19035 14.9016 2.90196 12.8131 4.24239C10.7192 2.91956 8.28972 2.22542 5.81307 2.24239C5.08572 2.24537 4.35988 2.30892 3.64307 2.43239C3.40828 2.47287 3.19565 2.59585 3.04349 2.77918C2.89132 2.96251 2.80961 3.19416 2.81307 3.43239V15.4324C2.81093 15.5793 2.8412 15.7249 2.90172 15.8588C2.96225 15.9927 3.05154 16.1117 3.16325 16.2071C3.27495 16.3026 3.40633 16.3723 3.54803 16.4112C3.68973 16.4502 3.83826 16.4574 3.98307 16.4324C5.41609 16.1843 6.88427 16.2254 8.30114 16.5535C9.718 16.8815 11.0549 17.4897 12.2331 18.3424L12.3531 18.4124H12.4631C12.574 18.4586 12.6929 18.4824 12.8131 18.4824C12.9332 18.4824 13.0522 18.4586 13.1631 18.4124H13.2731L13.3931 18.3424C14.563 17.4707 15.8961 16.8427 17.3132 16.4957C18.7304 16.1488 20.2027 16.0898 21.6431 16.3224C21.7879 16.3474 21.9364 16.3402 22.0781 16.3012C22.2198 16.2623 22.3512 16.1926 22.4629 16.0971C22.5746 16.0017 22.6639 15.8827 22.7244 15.7488C22.7849 15.6149 22.8152 15.4693 22.8131 15.3224V3.32239C22.8027 3.09454 22.7147 2.8771 22.5637 2.70612C22.4128 2.53515 22.2079 2.42092 21.9831 2.38239ZM11.8131 15.6724C9.96296 14.6991 7.90359 14.1911 5.81307 14.1924C5.48307 14.1924 5.15307 14.1924 4.81307 14.1924V4.19239C5.14613 4.17319 5.48002 4.17319 5.81307 4.19239C7.94646 4.19003 10.0333 4.81608 11.8131 5.99239V15.6724ZM20.8131 14.2324C20.4731 14.2324 20.1431 14.2324 19.8131 14.2324C17.7226 14.2311 15.6632 14.7391 13.8131 15.7124V5.99239C15.5929 4.81608 17.6797 4.19003 19.8131 4.19239C20.1461 4.17319 20.48 4.17319 20.8131 4.19239V14.2324ZM21.9831 18.3824C21.2663 18.2589 20.5404 18.1954 19.8131 18.1924C17.3314 18.1904 14.9016 18.902 12.8131 20.2424C10.7246 18.902 8.29471 18.1904 5.81307 18.1924C5.08572 18.1954 4.35988 18.2589 3.64307 18.3824C3.5129 18.403 3.3881 18.4492 3.27584 18.5183C3.16358 18.5874 3.06607 18.6779 2.98894 18.7848C2.9118 18.8917 2.85656 19.0127 2.82638 19.141C2.7962 19.2693 2.79167 19.4023 2.81307 19.5324C2.86389 19.7921 3.01556 20.021 3.23486 20.1691C3.45416 20.3172 3.72321 20.3723 3.98307 20.3224C5.41609 20.0743 6.88427 20.1154 8.30114 20.4435C9.718 20.7715 11.0549 21.3797 12.2331 22.2324C12.4024 22.353 12.6052 22.4178 12.8131 22.4178C13.021 22.4178 13.2237 22.353 13.3931 22.2324C14.5712 21.3797 15.9081 20.7715 17.325 20.4435C18.7419 20.1154 20.2101 20.0743 21.6431 20.3224C21.9029 20.3723 22.172 20.3172 22.3913 20.1691C22.6106 20.021 22.7623 19.7921 22.8131 19.5324C22.8345 19.4023 22.83 19.2693 22.7998 19.141C22.7696 19.0127 22.7143 18.8917 22.6372 18.7848C22.5601 18.6779 22.4626 18.5874 22.3503 18.5183C22.238 18.4492 22.1132 18.403 21.9831 18.3824Z" fill="#EB784E"/>
</g>
</svg>
