<svg width="25" height="25" viewBox="0 0 25 25" fill="none" xmlns="http://www.w3.org/2000/svg">
<g id="Iconly/Bold/Search">
<g id="Search">
<path id="Vector" d="M16.8815 12.6641C17.282 12.6691 17.6795 12.5937 18.0505 12.4426C18.4215 12.2915 18.7584 12.0676 19.0415 11.7841L21.8715 8.95409C22.0577 8.76673 22.1623 8.51328 22.1623 8.24909C22.1623 7.98491 22.0577 7.73145 21.8715 7.54409C21.7785 7.45036 21.6679 7.37597 21.5461 7.3252C21.4242 7.27443 21.2935 7.24829 21.1615 7.24829C21.0295 7.24829 20.8988 7.27443 20.7769 7.3252C20.6551 7.37597 20.5445 7.45036 20.4515 7.54409L17.5915 10.3641C17.4985 10.4578 17.3879 10.5322 17.2661 10.583C17.1442 10.6338 17.0135 10.6599 16.8815 10.6599C16.7495 10.6599 16.6188 10.6338 16.4969 10.583C16.3751 10.5322 16.2645 10.4578 16.1715 10.3641L19.7115 6.83409C19.8047 6.74085 19.8787 6.63016 19.9291 6.50834C19.9796 6.38652 20.0056 6.25595 20.0056 6.12409C20.0056 5.99223 19.9796 5.86166 19.9291 5.73984C19.8787 5.61802 19.8047 5.50733 19.7115 5.41409C19.6183 5.32085 19.5076 5.24689 19.3857 5.19643C19.2639 5.14597 19.1333 5.12 19.0015 5.12C18.8696 5.12 18.7391 5.14597 18.6172 5.19643C18.4954 5.24689 18.3847 5.32085 18.2915 5.41409L14.7615 8.95409C14.5752 8.76673 14.4707 8.51328 14.4707 8.24909C14.4707 7.98491 14.5752 7.73145 14.7615 7.54409L17.5915 4.71409C17.6847 4.62085 17.7587 4.51016 17.8092 4.38834C17.8596 4.26652 17.8856 4.13595 17.8856 4.00409C17.8856 3.87223 17.8596 3.74166 17.8092 3.61984C17.7587 3.49802 17.6847 3.38733 17.5915 3.29409C17.4983 3.20085 17.3876 3.12689 17.2657 3.07643C17.1439 3.02597 17.0134 3 16.8815 3C16.7496 3 16.6191 3.02597 16.4972 3.07643C16.3754 3.12689 16.2647 3.20085 16.1715 3.29409L13.3415 6.12409C12.7797 6.68659 12.4641 7.44909 12.4641 8.24409C12.4641 9.03909 12.7797 9.80159 13.3415 10.3641L12.0415 11.6541L3.77149 3.35409L3.67149 3.29409C3.62037 3.24949 3.56312 3.21245 3.50149 3.18409L3.32149 3.11409L3.20149 3.03409H3.13149H2.93149C2.87187 3.02456 2.81111 3.02456 2.75149 3.03409C2.69095 3.05613 2.63375 3.08641 2.58149 3.12409L2.42149 3.22409H2.35149L2.29149 3.32409C2.24917 3.37689 2.21231 3.43385 2.18149 3.49409C2.1522 3.55507 2.12877 3.61869 2.11149 3.68409C2.11149 3.68409 2.11149 3.75409 2.11149 3.79409C1.86883 5.4855 2.02354 7.21019 2.56337 8.83141C3.1032 10.4526 4.01329 11.9258 5.22149 13.1341L7.86149 15.7641L2.45149 21.1641C2.35776 21.2571 2.28337 21.3677 2.2326 21.4895C2.18183 21.6114 2.15569 21.7421 2.15569 21.8741C2.15569 22.0061 2.18183 22.1368 2.2326 22.2587C2.28337 22.3805 2.35776 22.4911 2.45149 22.5841C2.54493 22.6768 2.65575 22.7501 2.77758 22.7999C2.89942 22.8496 3.02988 22.8749 3.16149 22.8741C3.2931 22.8749 3.42356 22.8496 3.5454 22.7999C3.66724 22.7501 3.77805 22.6768 3.87149 22.5841L9.94149 16.6041L12.7715 13.7741L14.7715 11.7741C15.3295 12.3381 16.0881 12.6581 16.8815 12.6641ZM9.23149 14.4841L6.60149 11.8441C5.15995 10.3828 4.25734 8.47536 4.04149 6.43409L10.6515 13.0341L9.23149 14.4841ZM15.4715 15.0541C15.2832 14.8645 15.0273 14.7574 14.76 14.7565C14.4928 14.7555 14.2361 14.8608 14.0465 15.0491C13.8569 15.2374 13.7498 15.4933 13.7489 15.7606C13.7479 16.0278 13.8532 16.2845 14.0415 16.4741L20.3415 22.7741C20.5325 22.9479 20.7833 23.0411 21.0415 23.0341C21.1731 23.0349 21.3036 23.0096 21.4254 22.9599C21.5472 22.9101 21.658 22.8368 21.7515 22.7441C21.8452 22.6511 21.9196 22.5405 21.9704 22.4187C22.0212 22.2968 22.0473 22.1661 22.0473 22.0341C22.0473 21.9021 22.0212 21.7714 21.9704 21.6495C21.9196 21.5277 21.8452 21.4171 21.7515 21.3241L15.4715 15.0541Z" fill="#EB784E"/>
</g>
</g>
</svg>
